<svg id="Layer_1" data-name="Layer 1" xmlns="http://www.w3.org/2000/svg" viewBox="0 0 1352.27 303.12"><defs><style>.cls-1,.cls-2,.cls-4{fill:#fff;}.cls-2{stroke:#000;}.cls-2,.cls-3{stroke-miterlimit:10;}.cls-3{fill:none;stroke:#fff;stroke-width:16px;}.cls-4{font-size:245.24px;font-family:Finance-Regular, Finance;letter-spacing:0.03em;}.cls-5{letter-spacing:0.06em;}.cls-6{letter-spacing:0.04em;}.cls-7{letter-spacing:0.07em;}.cls-8{letter-spacing:0.12em;}.cls-9{letter-spacing:0.06em;}.cls-10{letter-spacing:0.04em;}.cls-11{letter-spacing:0em;}</style></defs><path class="cls-1" d="M171.52,29.66"/><path class="cls-2" d="M218.5,124.78"/><circle class="cls-3" cx="151.56" cy="151.56" r="143.56"/><path class="cls-1" d="M126.42,112.39a32.83,32.83,0,0,1-1,8.17A33.41,33.41,0,1,1,62.22,99.41s0,0,0,0l4.1-7.1L93,46.08l26.64,46.14,4.13,7.16a0,0,0,0,1,0,0A33.22,33.22,0,0,1,126.42,112.39Z"/><path class="cls-1" d="M243.51,112.39a33.4,33.4,0,0,1-65.79,8.17,32.83,32.83,0,0,1-1-8.17,33.39,33.39,0,0,1,2.62-13s0,0,0,0l4.1-7.1,26.67-46.2,26.65,46.14,4.13,7.16a0,0,0,0,1,0,0A33.21,33.21,0,0,1,243.51,112.39Z"/><path class="cls-1" d="M187.63,202.69s0,0,0,0l-4.83-8.39L151.55,140.2,120.3,194.33l-4.81,8.33v0a39.3,39.3,0,0,0-3.06,15.21,38.27,38.27,0,0,0,1.19,9.58,39.14,39.14,0,1,0,74-24.79Zm-61,16.91c3.51,9.84,16.25,20.17,16.25,20.17l-7.69,7.08c-12.66-6.34-16.11-20.43-16.11-20.43"/><text class="cls-4" transform="translate(340.92 244.51)">L<tspan class="cls-5" x="109.37" y="0">i</tspan><tspan class="cls-6" x="169.95" y="0">q</tspan><tspan class="cls-7" x="366.14" y="0">u</tspan><tspan class="cls-8" x="538.78" y="0">i</tspan><tspan class="cls-9" x="613.33" y="0">N</tspan><tspan class="cls-10" x="770.77" y="0">F</tspan><tspan class="cls-11" x="895.1" y="0">T</tspan></text></svg>